<svg height="155.999" viewBox="0 0 501 155.999" width="501" xmlns="http://www.w3.org/2000/svg" xmlns:xlink="http://www.w3.org/1999/xlink"><linearGradient id="a" gradientUnits="objectBoundingBox" x1=".5" x2=".5" y1=".5" y2="1"><stop offset="0" stop-color="#f1c538"/><stop offset="1" stop-color="#bf9b25"/></linearGradient><path d="m1.2.152h498.224v153.946h-498.224z" fill="#fff"/><path d="m500 155h-416.613l70.652-127.08-8.319-4.6-8.4 15.1-8.32-4.591 8.4-15.1-33.278-18.396-8.4 15.1-8.319-4.6 6.029-10.833h406.568zm-427.488 0h-72.512v-155h82.556l-70.656 127.079 8.319 4.6 8.4-15.1 8.319 4.6-8.4 15.1 33.279 18.391 8.4-15.1 8.319 4.6-6.023 10.83zm14.424-25.944-8.318-4.6 8.4-15.1 8.319 4.6-8.4 15.1zm-41.6-22.988-8.318-4.6 8.4-15.1 8.319 4.6-8.4 15.1zm58.393-7.22-8.318-4.6 8.4-15.1 8.319 4.6-8.4 15.1zm-41.6-22.99-8.318-4.6 8.4-15.1 8.319 4.6-8.4 15.1zm58.393-7.22-8.318-4.6 8.4-15.1 8.319 4.6-8.4 15.1zm-41.6-22.988-8.318-4.6 8.4-15.1 8.319 4.6-8.4 15.1z" fill="url(#a)" stroke="#707070" transform="translate(.5 .5)"/><text fill="#2a2400" font-family="Impact" font-size="65" transform="translate(44.584 103.724)"><tspan x="0" y="0">The Movie Spot</tspan></text></svg>